<?xml version="1.0" encoding="UTF-8"?>
<!-- Generator: Adobe Illustrator 23.0.3, SVG Export Plug-In . SVG Version: 6.00 Build 0)  -->
<svg xmlns="http://www.w3.org/2000/svg" xmlns:xlink="http://www.w3.org/1999/xlink" version="1.1" id="Layer_1" x="0px" y="0px" viewBox="0 0 2000 2000" style="enable-background:new 0 0 2000 2000;" xml:space="preserve">
<g fill="rgba(102,204,51,1)">
	<path d="M805.9,548.1c-210.7,0-309.4,56.2-309.4,188.1c0,104,85.4,156.1,253.4,156.1h533.5c426.8,0,611,106.2,611,406.3   c0,302-216.1,430.1-669.6,430.1H152.2v-256.1h1008.4c213.4,0,312.2-38,312.2-162.1c0-128.1-90.7-166-285.5-166H712.6   c-437.6,0-637.7-124.1-637.7-412.2C74.9,420.2,291,292,747.2,292h1053.7v256.1H805.9z" fill="rgba(102,204,51,1)"/>
</g>
</svg>
